<!-- Generated by IcoMoon.io -->
<svg version="1.1" xmlns="http://www.w3.org/2000/svg" width="1008" height="1024" viewBox="0 0 1008 1024">
<title></title>
<g id="icomoon-ignore">
</g>
<path fill="#000" d="M135.541 421.634c-66.543 0-120.486-53.943-120.486-120.486s53.943-120.486 120.486-120.486c66.543 0 120.486 53.943 120.486 120.486s-53.943 120.486-120.486 120.486zM873.523 421.634c-66.543 0-120.486-53.943-120.486-120.486s53.943-120.486 120.486-120.486c66.543 0 120.486 53.943 120.486 120.486s-53.943 120.486-120.486 120.486zM515.808 745.264c-25.794-6.183-37.117-21.652-37.117-52.403 0-31.091 10.444-46.72 33.359-52.946 95.375-2.597 178.454-54.454 224.709-131.048 13.246-33.451 45.885-57.11 84.049-57.11h96.833c49.907 0 90.365 40.458 90.365 90.365v301.216h-277.564v-173.173c-60.129 45.165-134.219 72.746-214.638 75.111l0.003-0.013zM277.557 669.364v173.972h-277.564v-301.216c0-49.907 40.458-90.365 90.365-90.365h96.833c33.448 0 62.651 18.173 78.276 45.182 0.331 0.545 0.626 1.090 0.922 1.633 37.607 68.587 103.321 118.9 181.497 135.519-9.519 15.75-14.378 35.538-14.378 58.772 0 18.050 3.126 33.984 9.24 47.537-61.329-10.123-117.661-35.069-165.191-71.032z"></path>
</svg>
